<svg width="180" height="180" viewBox="0 0 180 180" fill="none" xmlns="http://www.w3.org/2000/svg">
  <defs>
    <linearGradient id="combatr-touch-bg" x1="0" y1="0" x2="1" y2="1" gradientUnits="objectBoundingBox">
      <stop offset="0%" stop-color="#e11d48"/>
      <stop offset="100%" stop-color="#ea580c"/>
    </linearGradient>
    <linearGradient id="combatr-touch-sh" x1="0" y1="0" x2="0" y2="1" gradientUnits="objectBoundingBox">
      <stop offset="0%" stop-color="white" stop-opacity="0.22"/>
      <stop offset="100%" stop-color="white" stop-opacity="0"/>
    </linearGradient>
  </defs>
  <rect width="180" height="180" rx="40" fill="url(#combatr-touch-bg)"/>
  <rect width="180" height="100" rx="40" fill="url(#combatr-touch-sh)"/>
  <path d="M65.25 97.03L82.92 114.71L75.855 121.78L82.93 128.855L75.86 135.925L63.485 123.55L49.34 137.695L42.27 130.625L56.415 116.475L44.04 104.105L51.11 97.035L58.18 104.1L65.25 97.03Z" fill="white" opacity="0.42"/>
  <path d="M45 45L62.73 45.015L121.815 104.105L128.89 97.035L135.96 104.105L123.59 116.48L137.73 130.625L130.66 137.695L116.515 123.55L104.14 135.925L97.07 128.855L104.14 121.78L45.015 62.655L45 45Z" fill="white" opacity="0.95"/>
  <path d="M117.285 45L135 45.015L135.01 62.63L114.745 82.89L97.065 65.215L117.285 45Z" fill="white" opacity="0.42"/>
</svg>
