<svg width="180" height="180" viewBox="0 0 180 180" fill="none" xmlns="http://www.w3.org/2000/svg">
  <defs>
    <linearGradient id="combatr-touch-bg" x1="0" y1="0" x2="1" y2="1" gradientUnits="objectBoundingBox">
      <stop offset="0%" stop-color="#ef4444"/>
      <stop offset="100%" stop-color="#b91c1c"/>
    </linearGradient>
    <linearGradient id="combatr-touch-sh" x1="0" y1="0" x2="0" y2="1" gradientUnits="objectBoundingBox">
      <stop offset="0%" stop-color="white" stop-opacity="0.22"/>
      <stop offset="100%" stop-color="white" stop-opacity="0"/>
    </linearGradient>
  </defs>
  <rect width="180" height="180" rx="40" fill="url(#combatr-touch-bg)"/>
  <rect width="180" height="100" rx="40" fill="url(#combatr-touch-sh)"/>
  <g fill="white">
    <g transform="translate(90 90) rotate(45)">
      <path d="M0,-54 L6,-42 L6,18 L-6,18 L-6,-42 Z"/>
      <path d="M-18,18 L18,18 L18,25.5 L-18,25.5 Z"/>
      <path d="M-4.5,25.5 L4.5,25.5 L4.5,45 L-4.5,45 Z"/>
      <circle cx="0" cy="51" r="6"/>
    </g>
    <g transform="translate(90 90) rotate(-45)">
      <path d="M0,-54 L6,-42 L6,18 L-6,18 L-6,-42 Z"/>
      <path d="M-18,18 L18,18 L18,25.5 L-18,25.5 Z"/>
      <path d="M-4.5,25.5 L4.5,25.5 L4.5,45 L-4.5,45 Z"/>
      <circle cx="0" cy="51" r="6"/>
    </g>
  </g>
</svg>
