<svg width="36" height="36" viewBox="0 0 36 36" fill="none" xmlns="http://www.w3.org/2000/svg" role="img" aria-label="Combatr">
  <defs>
    <linearGradient id="combatr-fav-bg" x1="0" y1="0" x2="1" y2="1" gradientUnits="objectBoundingBox">
      <stop offset="0%" stop-color="#ef4444"/>
      <stop offset="100%" stop-color="#b91c1c"/>
    </linearGradient>
    <linearGradient id="combatr-fav-sh" x1="0" y1="0" x2="0" y2="1" gradientUnits="objectBoundingBox">
      <stop offset="0%" stop-color="white" stop-opacity="0.22"/>
      <stop offset="100%" stop-color="white" stop-opacity="0"/>
    </linearGradient>
  </defs>
  <rect width="36" height="36" rx="10" fill="url(#combatr-fav-bg)"/>
  <rect width="36" height="20" rx="10" fill="url(#combatr-fav-sh)"/>
  <g fill="white">
    <g transform="translate(18 18) rotate(45)">
      <path d="M0,-10.8 L1.2,-8.4 L1.2,3.6 L-1.2,3.6 L-1.2,-8.4 Z"/>
      <path d="M-3.6,3.6 L3.6,3.6 L3.6,5.1 L-3.6,5.1 Z"/>
      <path d="M-0.9,5.1 L0.9,5.1 L0.9,9 L-0.9,9 Z"/>
      <circle cx="0" cy="10.2" r="1.2"/>
    </g>
    <g transform="translate(18 18) rotate(-45)">
      <path d="M0,-10.8 L1.2,-8.4 L1.2,3.6 L-1.2,3.6 L-1.2,-8.4 Z"/>
      <path d="M-3.6,3.6 L3.6,3.6 L3.6,5.1 L-3.6,5.1 Z"/>
      <path d="M-0.9,5.1 L0.9,5.1 L0.9,9 L-0.9,9 Z"/>
      <circle cx="0" cy="10.2" r="1.2"/>
    </g>
  </g>
</svg>
